<svg width="70" height="49" viewBox="0 0 70 49" fill="none" xmlns="http://www.w3.org/2000/svg">
<path d="M64.8197 12.0058C60.7422 14.3837 55.6445 11.4125 55.6445 6.65821C55.6445 1.90553 60.7422 -1.06571 64.8197 1.31225C68.8972 3.68536 68.8988 9.62621 64.8197 12.0058Z" fill="url(#paint0_linear_1106_25677)"/>
<path d="M69.4073 14.3892C65.3628 30.672 62.5177 42.2316 62.2283 43.7263C62.1459 44.1967 61.9734 44.6448 61.7212 45.0438C61.1643 45.9172 59.7285 46.5825 59.7114 46.5922C53.5047 49.624 54.6434 25.059 40.8081 41.1467C39.5244 42.6289 37.7931 43.6055 35.9035 43.9134C34.0139 44.2212 32.0804 43.8417 30.4263 42.8383L25.0596 39.5983L69.4073 14.3892Z" fill="url(#paint1_linear_1106_25677)"/>
<path d="M57.174 33.805C56.0101 32.5542 53.8858 30.6473 50.9344 30.1997C43.8892 29.1267 37.7001 37.2126 36.0997 35.8851C34.709 34.7339 39.8505 29.0485 38.1902 23.9716C36.9221 20.0965 32.1896 18.1068 28.1187 17.0154C41.0328 9.55341 57.174 18.8809 57.174 33.805Z" fill="url(#paint2_linear_1106_25677)"/>
<path d="M23.1665 20.7916C25.8196 21.0828 28.2594 22.3555 29.9877 24.35C31.716 26.3445 32.6026 28.9103 32.4666 31.5238V31.6256C32.3381 34.3496 32.4157 37.0792 32.6986 39.792C32.7279 40.0597 32.6711 40.3296 32.5361 40.5641C32.4012 40.7986 32.1948 40.9859 31.946 41.0998C31.6971 41.2137 31.4181 41.2486 31.1481 41.1994C30.878 41.1503 30.6304 41.0197 30.4398 40.8259C29.5261 39.8906 28.4924 39.2575 27.3565 39.2257C24.038 39.135 22.7543 44.2108 18.1457 46.8258C15.189 48.504 10.0319 49.6508 0.592285 45.9017C6.84479 43.5443 13.6166 39.8381 14.6535 34.1308C15.5671 29.0885 11.468 25.4999 13.1022 22.7354C14.0125 21.1956 16.6025 20.0806 23.1665 20.7916Z" fill="url(#paint3_linear_1106_25677)"/>
<defs>
<linearGradient id="paint0_linear_1106_25677" x1="55.6445" y1="6.65497" x2="67.8786" y2="6.65497" gradientUnits="userSpaceOnUse">
<stop offset="0.25" stop-color="#914EFF"/>
<stop offset="0.96" stop-color="#F5D5E0"/>
</linearGradient>
<linearGradient id="paint1_linear_1106_25677" x1="25.0596" y1="30.6216" x2="69.4073" y2="30.6216" gradientUnits="userSpaceOnUse">
<stop offset="0.16" stop-color="#914EFF"/>
<stop offset="0.98" stop-color="#F5D5E0"/>
</linearGradient>
<linearGradient id="paint2_linear_1106_25677" x1="28.1187" y1="25.2117" x2="57.174" y2="25.2117" gradientUnits="userSpaceOnUse">
<stop offset="0.31" stop-color="#F5D5E0"/>
<stop offset="0.9" stop-color="#914EFF"/>
</linearGradient>
<linearGradient id="paint3_linear_1106_25677" x1="0.592285" y1="34.4887" x2="32.7019" y2="34.4887" gradientUnits="userSpaceOnUse">
<stop offset="0.25" stop-color="#914EFF"/>
<stop offset="0.96" stop-color="#F5D5E0"/>
</linearGradient>
</defs>
</svg>
