<svg width="11" height="11" viewBox="0 0 11 11" fill="none" xmlns="http://www.w3.org/2000/svg">
<path d="M0.948963 8.43431L0.383278 9L1.51465 10.1314L2.08033 9.56569L0.948963 8.43431ZM10.3146 1C10.3146 0.558172 9.95648 0.199999 9.51465 0.2L2.31465 0.2C1.87282 0.2 1.51465 0.558172 1.51465 1C1.51465 1.44183 1.87282 1.8 2.31465 1.8H8.71465V8.2C8.71465 8.64183 9.07282 9 9.51465 9C9.95648 9 10.3146 8.64183 10.3146 8.2L10.3146 1ZM2.08033 9.56569L10.0803 1.56569L8.94896 0.434314L0.948963 8.43431L2.08033 9.56569Z" fill="#D9DEE0"/>
</svg>
