<svg width="47" height="46" viewBox="0 0 47 46" fill="none" xmlns="http://www.w3.org/2000/svg">
<path d="M2.33066 40.084L0.380062 42.0371L4.28125 45.9433L6.23184 43.9902L2.33066 40.084ZM46.2195 2.80744C46.2195 1.28198 44.9844 0.0453572 43.4609 0.0453582L18.6339 0.0453594C17.1104 0.045358 15.8753 1.28198 15.8753 2.80744C15.8753 4.33289 17.1104 5.56951 18.6339 5.56951L40.7024 5.56951L40.7024 27.6661C40.7024 29.1916 41.9374 30.4282 43.4609 30.4282C44.9844 30.4282 46.2195 29.1916 46.2195 27.6661L46.2195 2.80744ZM6.23184 43.9902L45.4115 4.76052L41.5103 0.854352L2.33066 40.084L6.23184 43.9902Z" fill="white"/>
</svg>
