<svg width="156" height="364" viewBox="0 0 156 364" fill="none" xmlns="http://www.w3.org/2000/svg">
<path d="M0.00352111 77.2397H-2.7568L-2.76384 82.7603H-0.00352111L0.00352111 77.2397ZM57.3931 81.9518C58.4725 80.8739 58.4747 79.1261 57.3981 78.0482L39.854 60.4816C38.7774 59.4037 37.0296 59.4037 35.9503 60.4816C34.8709 61.5596 34.8687 63.3073 35.9453 64.3853L51.5401 80L35.9055 95.6147C34.8261 96.6927 34.8239 98.4404 35.9005 99.5184C36.9771 100.596 38.7248 100.596 39.8042 99.5184L57.3931 81.9518ZM-0.00352111 82.7603H55.4403L55.4473 77.2397H0.00352111L-0.00352111 82.7603Z" fill="white"/>
<ellipse cx="77.5757" cy="205.675" rx="77.5757" ry="77.6748" fill="#914EFE"/>
</svg>
