<svg width="81" height="13" viewBox="0 0 81 13" fill="none" xmlns="http://www.w3.org/2000/svg">
<g clip-path="url(#clip0_1117_28830)">
<path d="M8.7444 4.07027L12.536 4.70726C12.9756 4.76034 13.1404 5.29116 12.8657 5.60966L10.1729 8.21122L10.7223 11.8744C10.7773 12.299 10.3377 12.6175 9.89817 12.4583L6.54609 10.8122L3.08409 12.4583C2.69949 12.6175 2.20498 12.299 2.25993 11.8744L2.86432 8.26432L0.171508 5.60966C-0.158151 5.29117 0.00667864 4.76034 0.501168 4.70726L4.23784 4.07027L5.99658 0.778681C6.21635 0.407106 6.82074 0.407106 6.98558 0.778681L8.7444 4.07027Z" fill="#FF3C2E"/>
</g>
<g clip-path="url(#clip1_1117_28830)">
<path d="M25.7444 4.07027L29.536 4.70726C29.9756 4.76034 30.1404 5.29116 29.8657 5.60966L27.1729 8.21122L27.7223 11.8744C27.7773 12.299 27.3377 12.6175 26.8982 12.4583L23.5461 10.8122L20.0841 12.4583C19.6995 12.6175 19.205 12.299 19.2599 11.8744L19.8643 8.26432L17.1715 5.60966C16.8418 5.29117 17.0067 4.76034 17.5012 4.70726L21.2378 4.07027L22.9966 0.778681C23.2164 0.407106 23.8207 0.407106 23.9856 0.778681L25.7444 4.07027Z" fill="#FF3C2E"/>
</g>
<g clip-path="url(#clip2_1117_28830)">
<path d="M42.7444 4.07027L46.536 4.70726C46.9756 4.76034 47.1404 5.29116 46.8657 5.60966L44.1729 8.21122L44.7223 11.8744C44.7773 12.299 44.3377 12.6175 43.8982 12.4583L40.5461 10.8122L37.0841 12.4583C36.6995 12.6175 36.205 12.299 36.2599 11.8744L36.8643 8.26432L34.1715 5.60966C33.8418 5.29117 34.0067 4.76034 34.5012 4.70726L38.2378 4.07027L39.9966 0.778681C40.2164 0.407106 40.8207 0.407106 40.9856 0.778681L42.7444 4.07027Z" fill="#FF3C2E"/>
</g>
<g clip-path="url(#clip3_1117_28830)">
<path d="M59.7444 4.07027L63.536 4.70726C63.9756 4.76034 64.1404 5.29116 63.8657 5.60966L61.1729 8.21122L61.7223 11.8744C61.7773 12.299 61.3377 12.6175 60.8982 12.4583L57.5461 10.8122L54.0841 12.4583C53.6995 12.6175 53.205 12.299 53.2599 11.8744L53.8643 8.26432L51.1715 5.60966C50.8418 5.29117 51.0067 4.76034 51.5012 4.70726L55.2378 4.07027L56.9966 0.778681C57.2164 0.407106 57.8207 0.407106 57.9856 0.778681L59.7444 4.07027Z" fill="#FF3C2E"/>
</g>
<g clip-path="url(#clip4_1117_28830)">
<path d="M76.7444 4.07027L80.536 4.70726C80.9756 4.76034 81.1404 5.29116 80.8657 5.60966L78.1729 8.21122L78.7223 11.8744C78.7773 12.299 78.3377 12.6175 77.8982 12.4583L74.5461 10.8122L71.0841 12.4583C70.6995 12.6175 70.205 12.299 70.2599 11.8744L70.8643 8.26432L68.1715 5.60966C67.8418 5.29117 68.0067 4.76034 68.5012 4.70726L72.2378 4.07027L73.9966 0.778681C74.2164 0.407106 74.8207 0.407106 74.9856 0.778681L76.7444 4.07027Z" fill="#FF3C2E"/>
</g>
<defs>
<clipPath id="clip0_1117_28830">
<rect width="13" height="12" fill="white" transform="translate(0 0.5)"/>
</clipPath>
<clipPath id="clip1_1117_28830">
<rect width="13" height="12" fill="white" transform="translate(17 0.5)"/>
</clipPath>
<clipPath id="clip2_1117_28830">
<rect width="13" height="12" fill="white" transform="translate(34 0.5)"/>
</clipPath>
<clipPath id="clip3_1117_28830">
<rect width="13" height="12" fill="white" transform="translate(51 0.5)"/>
</clipPath>
<clipPath id="clip4_1117_28830">
<rect width="13" height="12" fill="white" transform="translate(68 0.5)"/>
</clipPath>
</defs>
</svg>
