<svg width="67" height="21" viewBox="0 0 67 21" fill="none" xmlns="http://www.w3.org/2000/svg">
<path d="M20.2648 0.5H17.2471V20.5H20.2648V0.5Z" fill="#ACA8B5"/>
<path d="M30.8272 14.1199C30.8272 17.1807 28.4001 17.4247 27.6781 17.4247C25.8743 17.4247 25.5461 15.6343 25.5461 14.5543V6.8999H22.5283V14.5383C22.5283 16.4343 23.0896 17.9991 24.0734 19.0423C24.9425 19.9647 26.2447 20.4687 27.6555 20.4687C28.6559 20.4687 30.0727 20.1383 30.8272 19.4079V20.4999H33.845V6.8999H30.8272V14.1199Z" fill="#ACA8B5"/>
<path d="M39.8807 2.1001H36.8629V6.9001H34.5996V10.1001H36.8629V20.5001H39.8807V10.1001H42.144V6.9001H39.8807V2.1001Z" fill="#ACA8B5"/>
<path d="M51.6474 16.4335C50.9903 17.0599 50.1227 17.4071 49.1705 17.4071C47.0717 17.4071 45.5304 15.7727 45.5304 13.5287C45.5304 11.2847 47.0227 9.71911 49.1705 9.71911C50.1061 9.71911 50.9903 10.0495 51.664 10.6759L52.1219 11.0935L54.1567 8.93671L53.6474 8.44951C52.4501 7.30311 50.8605 6.65991 49.1698 6.65991C45.3976 6.65991 42.6582 9.54631 42.6582 13.5119C42.6582 17.4607 45.4632 20.4503 49.1698 20.4503C50.8922 20.4503 52.4984 19.8071 53.6806 18.6423L54.1725 18.1551L52.1061 15.9999L51.6474 16.4335Z" fill="#ACA8B5"/>
<path d="M64.9278 8.0856C64.0587 7.164 63.0402 6.66 61.6294 6.66C60.629 6.66 59.4958 6.9904 58.7414 7.72V0.5H55.7236V20.5H58.7414V13.008C58.7414 9.9472 60.792 9.704 61.514 9.704C63.3178 9.704 63.2681 11.4952 63.2681 12.5736V20.5H66.2858V12.5904C66.2858 10.6944 65.9124 9.1296 64.9278 8.0856Z" fill="#ACA8B5"/>
<path d="M49.0712 11.2505C50.2768 11.2505 51.2538 12.2849 51.2538 13.5641C51.2538 14.8417 50.2768 15.8777 49.0712 15.8777C47.8664 15.8777 46.8901 14.8417 46.8901 13.5641C46.8909 12.2857 47.8671 11.2505 49.0712 11.2505Z" fill="#FF3D2E"/>
<path d="M13.0224 15.4769C11.8749 16.7289 10.3162 17.4073 8.67608 17.4073C5.31429 17.4073 2.8699 14.6073 2.8699 10.7641C2.8699 6.90326 5.31429 4.10326 8.67608 4.10326C10.3004 4.10326 11.8417 4.78086 13.0066 6.01606L13.4653 6.50326L15.4827 4.36406L15.0398 3.87686C13.3672 2.05046 11.1039 1.06006 8.67608 1.06006C3.72317 1.06006 0 5.23366 0 10.7809C0 16.3113 3.73977 20.4681 8.67608 20.4681C11.1205 20.4681 13.3838 19.4601 15.0564 17.6337L15.4993 17.1465L13.4985 14.9729L13.0224 15.4769Z" fill="#ACA8B5"/>
</svg>
